# xmcd CD database file
#
# Track frame offsets:
#	150
#	78057
#	145857
#	200310
#
# Disc length: 3982 seconds
#
# Revision: 0
# Processed by: cddbd v1.5PL3 Copyright (c) Steve Scherf et al.
# Submitted via: CDex 1.50Beta7
#
DISCID=280f8c04
DTITLE=Arcado - Dresser, Feldman, Roberts - For Three Strings and Orchestra
DYEAR=1991
DGENRE=Jazz
TTITLE0=For Not The Law
TTITLE1=It's A Free Country, Isn't It?
TTITLE2=In Cold Moonlight
TTITLE3=Naked Singularities
EXTD=YEAR: 1991
EXTT0=
EXTT1=
EXTT2=
EXTT3=
PLAYORDER=
